<svg width="22" height="22" viewBox="0 0 22 22" fill="none" xmlns="http://www.w3.org/2000/svg">
<g clip-path="url(#clip0)">
<path d="M8.89078 10.5926C10.3081 10.5926 11.5352 10.0843 12.5381 9.08134C13.5407 8.07859 14.0491 6.85166 14.0491 5.43422C14.0491 4.01726 13.5408 2.79017 12.5379 1.78709C11.535 0.784504 10.3079 0.276184 8.89078 0.276184C7.47333 0.276184 6.24641 0.784504 5.24366 1.78725C4.2409 2.79001 3.73242 4.0171 3.73242 5.43422C3.73242 6.85166 4.2409 8.07875 5.24366 9.0815C6.24673 10.0841 7.47382 10.5926 8.89078 10.5926ZM6.13121 2.67465C6.90064 1.90523 7.80323 1.53122 8.89078 1.53122C9.97817 1.53122 10.8809 1.90523 11.6505 2.67465C12.4199 3.44424 12.7941 4.34699 12.7941 5.43422C12.7941 6.52177 12.4199 7.42436 11.6505 8.19395C10.8809 8.96353 9.97817 9.33754 8.89078 9.33754C7.80355 9.33754 6.90096 8.96337 6.13121 8.19395C5.36163 7.42452 4.98745 6.52177 4.98745 5.43422C4.98745 4.34699 5.36163 3.44424 6.13121 2.67465Z" fill="#223066"/>
<path d="M17.9163 16.7444C17.8874 16.3271 17.8289 15.8718 17.7428 15.3911C17.6559 14.9068 17.5439 14.449 17.41 14.0306C17.2714 13.5981 17.0833 13.1709 16.8505 12.7616C16.6092 12.3368 16.3255 11.9669 16.0072 11.6625C15.6744 11.344 15.2669 11.088 14.7957 10.9012C14.3261 10.7154 13.8056 10.6213 13.249 10.6213C13.0303 10.6213 12.8189 10.711 12.4106 10.9769C12.1593 11.1408 11.8653 11.3303 11.5372 11.5399C11.2567 11.7187 10.8766 11.8862 10.4072 12.0378C9.94921 12.186 9.48419 12.2612 9.02505 12.2612C8.56624 12.2612 8.10122 12.186 7.6429 12.0378C7.17396 11.8863 6.79374 11.7189 6.51368 11.5401C6.18869 11.3324 5.89458 11.1429 5.63952 10.9767C5.23153 10.7109 5.0201 10.6212 4.80148 10.6212C4.24463 10.6212 3.72438 10.7154 3.25495 10.9014C2.78405 11.0878 2.37638 11.3439 2.04322 11.6626C1.72492 11.9672 1.44127 12.337 1.2001 12.7616C0.96759 13.1709 0.77936 13.5979 0.640802 14.0307C0.506982 14.4492 0.395057 14.9068 0.308131 15.3911C0.221859 15.8712 0.163527 16.3266 0.134606 16.7449C0.106176 17.1538 0.0917969 17.5795 0.0917969 18.0095C0.0917969 19.1275 0.44718 20.0325 1.14798 20.7C1.84012 21.3586 2.75578 21.6926 3.86964 21.6926H14.1818C15.2953 21.6926 16.211 21.3586 16.9033 20.7C17.6042 20.033 17.9596 19.1276 17.9596 18.0094C17.9595 17.5778 17.9449 17.1522 17.9163 16.7444ZM16.0379 19.7907C15.5806 20.226 14.9734 20.4376 14.1816 20.4376H3.86964C3.07766 20.4376 2.47049 20.226 2.01331 19.7909C1.5648 19.3639 1.34683 18.7811 1.34683 18.0095C1.34683 17.6082 1.36006 17.212 1.38653 16.8316C1.41235 16.4584 1.46513 16.0485 1.54339 15.6129C1.62068 15.1826 1.71904 14.7789 1.83603 14.4134C1.94828 14.0629 2.10138 13.7159 2.29125 13.3816C2.47245 13.0629 2.68094 12.7896 2.911 12.5693C3.12619 12.3633 3.39743 12.1947 3.71703 12.0682C4.01261 11.9512 4.34479 11.8871 4.7054 11.8775C4.74935 11.9009 4.82762 11.9455 4.95441 12.0282C5.21241 12.1963 5.50979 12.3881 5.83854 12.5981C6.20912 12.8343 6.68656 13.0477 7.25697 13.2319C7.84012 13.4204 8.43487 13.5162 9.02522 13.5162C9.61556 13.5162 10.2105 13.4204 10.7933 13.232C11.3642 13.0476 11.8415 12.8343 12.2126 12.5978C12.549 12.3827 12.838 12.1965 13.096 12.0282C13.2228 11.9456 13.3011 11.9009 13.345 11.8775C13.7058 11.8871 14.038 11.9512 14.3337 12.0682C14.6532 12.1947 14.9244 12.3634 15.1396 12.5693C15.3697 12.7894 15.5781 13.0628 15.7594 13.3817C15.9494 13.7159 16.1026 14.0631 16.2147 14.4132C16.3319 14.7792 16.4304 15.1828 16.5075 15.6127C16.5856 16.0491 16.6386 16.4592 16.6644 16.8318V16.8321C16.691 17.211 16.7044 17.6071 16.7046 18.0095C16.7044 18.7812 16.4865 19.3639 16.0379 19.7907Z" fill="#223066"/>
</g>
<defs>
<clipPath id="clip0">
<rect width="21.4164" height="21.4165" fill="white" transform="translate(0.0917969 0.276184)"/>
</clipPath>
</defs>
</svg>
